<mxfile host="drawio-plugin" modified="2025-10-10T04:04:49.045Z" agent="Mozilla/5.0 (Windows NT 10.0; Win64; x64) AppleWebKit/537.36 (KHTML, like Gecko) Chrome/122.0.0.0 Safari/537.36" etag="6OeTrduUX-d7EdwwFoKG" version="22.1.22" type="embed">
  <diagram id="23iRSUPoRavnBvh4doch" name="Page-1">
    <mxGraphModel dx="1828" dy="368" grid="0" gridSize="10" guides="1" tooltips="1" connect="1" arrows="1" fold="1" page="0" pageScale="1" pageWidth="827" pageHeight="1169" background="none" math="0" shadow="0">
      <root>
        <mxCell id="0" />
        <mxCell id="1" parent="0" />
        <mxCell id="2" value="&lt;font style=&quot;font-size: 29px;&quot;&gt;Report Analyst&lt;/font&gt;" style="shape=umlActor;verticalLabelPosition=bottom;verticalAlign=top;html=1;outlineConnect=0;" parent="1" vertex="1">
          <mxGeometry x="-210" y="855" width="100" height="190" as="geometry" />
        </mxCell>
        <mxCell id="52" value="&lt;font style=&quot;font-size: 30px;&quot;&gt;World Population DB&lt;/font&gt;" style="shape=datastore;whiteSpace=wrap;html=1;fillColor=#519e47;" parent="1" vertex="1">
          <mxGeometry x="935" y="714" width="450" height="514" as="geometry" />
        </mxCell>
        <mxCell id="100" value="&lt;font style=&quot;font-size: 25px;&quot;&gt;World Population System&lt;/font&gt;" style="shape=umlFrame;whiteSpace=wrap;html=1;pointerEvents=0;recursiveResize=0;container=1;collapsible=0;width=300;height=66;" parent="1" vertex="1">
          <mxGeometry y="737" width="880" height="485" as="geometry" />
        </mxCell>
        <mxCell id="6" value="&lt;font style=&quot;font-size: 16px;&quot;&gt;&lt;br&gt;Generate Capital &lt;br&gt;City Reports&lt;/font&gt;" style="ellipse;whiteSpace=wrap;html=1;fillColor=#f8cecc;strokeColor=#b85450;gradientColor=#ea6b66;" parent="100" vertex="1">
          <mxGeometry x="34" y="216" width="173" height="87" as="geometry" />
        </mxCell>
        <mxCell id="28" value="&lt;span style=&quot;font-size: 14px;&quot; data-end=&quot;830&quot; data-start=&quot;807&quot;&gt;Retrieve All Capital Cities &lt;br&gt;in the World&lt;/span&gt;" style="ellipse;whiteSpace=wrap;html=1;" parent="100" vertex="1">
          <mxGeometry x="374" y="51" width="209" height="56" as="geometry" />
        </mxCell>
        <mxCell id="29" value="&lt;span style=&quot;font-size: 14px;&quot; data-end=&quot;916&quot; data-start=&quot;884&quot;&gt;Retrieve Capital Cities &lt;br&gt;by Continent&lt;/span&gt;" style="ellipse;whiteSpace=wrap;html=1;" parent="100" vertex="1">
          <mxGeometry x="374" y="121" width="200" height="52" as="geometry" />
        </mxCell>
        <mxCell id="30" value="&lt;font style=&quot;font-size: 14px;&quot;&gt;&lt;br&gt;Retrieve Capital Cities &lt;br&gt;by Region&lt;br&gt;&lt;/font&gt;" style="ellipse;whiteSpace=wrap;html=1;" parent="100" vertex="1">
          <mxGeometry x="374" y="191" width="200" height="50" as="geometry" />
        </mxCell>
        <mxCell id="31" value="&lt;span style=&quot;font-size: 14px;&quot; data-end=&quot;1226&quot; data-start=&quot;1196&quot;&gt;List Top N Capital Cities &lt;br&gt;in the World&lt;/span&gt;" style="ellipse;whiteSpace=wrap;html=1;" parent="100" vertex="1">
          <mxGeometry x="374" y="260" width="200" height="50" as="geometry" />
        </mxCell>
        <mxCell id="32" value="&lt;font style=&quot;font-size: 14px;&quot;&gt;List Top N Capital Cities&lt;br&gt;&amp;nbsp;in Continent&lt;/font&gt;" style="ellipse;whiteSpace=wrap;html=1;" parent="100" vertex="1">
          <mxGeometry x="384" y="329.5" width="200" height="50" as="geometry" />
        </mxCell>
        <mxCell id="33" value="&lt;span style=&quot;font-size: 14px;&quot; data-end=&quot;1412&quot; data-start=&quot;1381&quot;&gt;List Top N Capital Cities &lt;br&gt;in Region&lt;/span&gt;" style="ellipse;whiteSpace=wrap;html=1;" parent="100" vertex="1">
          <mxGeometry x="384" y="400" width="200" height="50" as="geometry" />
        </mxCell>
        <mxCell id="77" value="&lt;font style=&quot;font-size: 13px;&quot;&gt;&amp;lt;&amp;lt;include&amp;gt;&amp;gt;&lt;/font&gt;" style="html=1;verticalAlign=bottom;labelBackgroundColor=none;endArrow=open;endFill=0;dashed=1;rounded=0;exitX=1;exitY=0.5;exitDx=0;exitDy=0;entryX=0;entryY=0.5;entryDx=0;entryDy=0;" parent="100" source="6" target="28" edge="1">
          <mxGeometry width="160" relative="1" as="geometry">
            <mxPoint x="64" y="234" as="sourcePoint" />
            <mxPoint x="224" y="234" as="targetPoint" />
          </mxGeometry>
        </mxCell>
        <mxCell id="78" value="&lt;font style=&quot;font-size: 13px;&quot;&gt;&amp;lt;&amp;lt;include&amp;gt;&amp;gt;&lt;/font&gt;" style="html=1;verticalAlign=bottom;labelBackgroundColor=none;endArrow=open;endFill=0;dashed=1;rounded=0;entryX=0;entryY=0.5;entryDx=0;entryDy=0;exitX=1;exitY=0.5;exitDx=0;exitDy=0;" parent="100" source="6" target="29" edge="1">
          <mxGeometry width="160" relative="1" as="geometry">
            <mxPoint x="64" y="234" as="sourcePoint" />
            <mxPoint x="224" y="234" as="targetPoint" />
          </mxGeometry>
        </mxCell>
        <mxCell id="79" value="&lt;font style=&quot;font-size: 13px;&quot;&gt;&amp;lt;&amp;lt;include&amp;gt;&amp;gt;&lt;/font&gt;" style="html=1;verticalAlign=bottom;labelBackgroundColor=none;endArrow=open;endFill=0;dashed=1;rounded=0;entryX=0;entryY=0.5;entryDx=0;entryDy=0;" parent="100" target="30" edge="1">
          <mxGeometry width="160" relative="1" as="geometry">
            <mxPoint x="204" y="254" as="sourcePoint" />
            <mxPoint x="284" y="204" as="targetPoint" />
          </mxGeometry>
        </mxCell>
        <mxCell id="80" value="&lt;font style=&quot;font-size: 13px;&quot;&gt;&amp;lt;&amp;lt;include&amp;gt;&amp;gt;&lt;/font&gt;" style="html=1;verticalAlign=bottom;labelBackgroundColor=none;endArrow=open;endFill=0;dashed=1;rounded=0;exitX=1;exitY=0.5;exitDx=0;exitDy=0;entryX=0;entryY=0.5;entryDx=0;entryDy=0;" parent="100" source="6" target="31" edge="1">
          <mxGeometry width="160" relative="1" as="geometry">
            <mxPoint x="124" y="204" as="sourcePoint" />
            <mxPoint x="284" y="204" as="targetPoint" />
          </mxGeometry>
        </mxCell>
        <mxCell id="81" value="&lt;font style=&quot;font-size: 13px;&quot;&gt;&amp;lt;&amp;lt;include&amp;gt;&amp;gt;&lt;/font&gt;" style="html=1;verticalAlign=bottom;labelBackgroundColor=none;endArrow=open;endFill=0;dashed=1;rounded=0;exitX=1;exitY=0.5;exitDx=0;exitDy=0;entryX=0;entryY=0.5;entryDx=0;entryDy=0;" parent="100" source="6" target="32" edge="1">
          <mxGeometry width="160" relative="1" as="geometry">
            <mxPoint x="124" y="114" as="sourcePoint" />
            <mxPoint x="284" y="114" as="targetPoint" />
          </mxGeometry>
        </mxCell>
        <mxCell id="82" value="&lt;font style=&quot;font-size: 13px;&quot;&gt;&amp;lt;&amp;lt;include&amp;gt;&amp;gt;&lt;/font&gt;" style="html=1;verticalAlign=bottom;labelBackgroundColor=none;endArrow=open;endFill=0;dashed=1;rounded=0;exitX=1;exitY=0.5;exitDx=0;exitDy=0;entryX=0;entryY=0.5;entryDx=0;entryDy=0;" parent="100" source="6" target="33" edge="1">
          <mxGeometry width="160" relative="1" as="geometry">
            <mxPoint x="124" y="114" as="sourcePoint" />
            <mxPoint x="284" y="114" as="targetPoint" />
          </mxGeometry>
        </mxCell>
        <mxCell id="103" value="" style="endArrow=none;html=1;rounded=0;entryX=0;entryY=0.5;entryDx=0;entryDy=0;exitX=1;exitY=0.3333333333333333;exitDx=0;exitDy=0;exitPerimeter=0;" parent="1" source="2" target="6" edge="1">
          <mxGeometry width="50" height="50" relative="1" as="geometry">
            <mxPoint x="-450" y="800" as="sourcePoint" />
            <mxPoint x="230" y="590" as="targetPoint" />
          </mxGeometry>
        </mxCell>
        <mxCell id="125" value="" style="endArrow=none;html=1;rounded=0;exitX=1;exitY=0.5;exitDx=0;exitDy=0;entryX=0;entryY=0.5;entryDx=0;entryDy=0;" parent="1" source="28" target="52" edge="1">
          <mxGeometry width="50" height="50" relative="1" as="geometry">
            <mxPoint x="610" y="700" as="sourcePoint" />
            <mxPoint x="660" y="650" as="targetPoint" />
          </mxGeometry>
        </mxCell>
        <mxCell id="126" value="" style="endArrow=none;html=1;rounded=0;exitX=1;exitY=0.5;exitDx=0;exitDy=0;entryX=0;entryY=0.5;entryDx=0;entryDy=0;" parent="1" source="29" target="52" edge="1">
          <mxGeometry width="50" height="50" relative="1" as="geometry">
            <mxPoint x="570" y="720" as="sourcePoint" />
            <mxPoint x="620" y="670" as="targetPoint" />
          </mxGeometry>
        </mxCell>
        <mxCell id="127" value="" style="endArrow=none;html=1;rounded=0;entryX=0;entryY=0.5;entryDx=0;entryDy=0;exitX=1;exitY=0.5;exitDx=0;exitDy=0;" parent="1" source="30" target="52" edge="1">
          <mxGeometry width="50" height="50" relative="1" as="geometry">
            <mxPoint x="570" y="720" as="sourcePoint" />
            <mxPoint x="620" y="670" as="targetPoint" />
          </mxGeometry>
        </mxCell>
        <mxCell id="128" value="" style="endArrow=none;html=1;rounded=0;exitX=1;exitY=0.5;exitDx=0;exitDy=0;entryX=0;entryY=0.5;entryDx=0;entryDy=0;" parent="1" source="31" target="52" edge="1">
          <mxGeometry width="50" height="50" relative="1" as="geometry">
            <mxPoint x="600" y="740" as="sourcePoint" />
            <mxPoint x="650" y="690" as="targetPoint" />
          </mxGeometry>
        </mxCell>
        <mxCell id="129" value="" style="endArrow=none;html=1;rounded=0;exitX=1;exitY=0.5;exitDx=0;exitDy=0;entryX=0;entryY=0.5;entryDx=0;entryDy=0;" parent="1" source="32" target="52" edge="1">
          <mxGeometry width="50" height="50" relative="1" as="geometry">
            <mxPoint x="740" y="820" as="sourcePoint" />
            <mxPoint x="790" y="770" as="targetPoint" />
          </mxGeometry>
        </mxCell>
        <mxCell id="130" value="" style="endArrow=none;html=1;rounded=0;entryX=1;entryY=0.5;entryDx=0;entryDy=0;exitX=0;exitY=0.5;exitDx=0;exitDy=0;" parent="1" source="52" target="33" edge="1">
          <mxGeometry width="50" height="50" relative="1" as="geometry">
            <mxPoint x="740" y="870" as="sourcePoint" />
            <mxPoint x="790" y="820" as="targetPoint" />
            <Array as="points" />
          </mxGeometry>
        </mxCell>
      </root>
    </mxGraphModel>
  </diagram>
</mxfile>
